<?xml version="1.0" encoding="iso-8859-1"?>
<!-- Generator: Adobe Illustrator 19.0.0, SVG Export Plug-In . SVG Version: 6.00 Build 0)  -->
<svg version="1.1" id="Capa_1" xmlns="http://www.w3.org/2000/svg" xmlns:xlink="http://www.w3.org/1999/xlink" x="0px" y="0px"
	 viewBox="0 0 512 512" style="enable-background:new 0 0 512 512;" xml:space="preserve">
<g>
	<g>
		<path d="M456.391,312.611H233.69L118.976,197.897c-15.431-15.43-40.538-15.429-55.97,0c-2.894,2.895-2.894,7.734,0,10.628
			l148.977,148.978c1.409,1.409,3.32,2.2,5.313,2.2h271.158c4.15,0,7.515-3.364,7.515-7.515
			C495.969,330.365,478.214,312.611,456.391,312.611z M220.409,344.673L79.779,204.043c9.229-4.73,20.852-3.236,28.571,4.482
			L225.265,325.44c1.409,1.409,3.32,2.2,5.313,2.2h225.813c10.916,0,20.19,7.161,23.372,17.033H220.409z"/>
	</g>
</g>
<g>
	<g>
		<path d="M432.344,400.783H223.937c-4.15,0-7.515,3.364-7.515,7.515v32.063c0,4.151,3.365,7.515,7.515,7.515h208.407
			c4.15,0,7.515-3.364,7.515-7.515v-32.063C439.859,404.146,436.494,400.783,432.344,400.783z M424.83,432.845H231.452v-17.033
			H424.83V432.845z"/>
	</g>
</g>
<g>
	<g>
		<path d="M504.485,368.72H211.001L35.479,194.556c-2.938-2.915-7.68-2.906-10.607,0.021l-22.671,22.67
			c-2.927,2.928-2.936,7.67-0.02,10.608L184.36,411.395v93.091c0,4.151,3.365,7.515,7.515,7.515h32.063
			c4.15,0,7.515-3.364,7.515-7.515v-24.548H424.83v24.548c0,4.151,3.365,7.515,7.515,7.515h32.063c4.15,0,7.515-3.364,7.515-7.515
			v-88.673h32.564c4.15,0,7.515-3.364,7.515-7.515v-32.063C512,372.084,508.635,368.72,504.485,368.72z M496.97,400.783h-32.564
			c-4.15,0-7.515,3.364-7.515,7.515v88.673h-17.033v-24.548c0-4.151-3.365-7.515-7.515-7.515H223.937
			c-4.15,0-7.515,3.364-7.515,7.515v24.548h-17.033v-88.673c0-1.983-0.784-3.887-2.181-5.293L18.122,222.582l12.085-12.085
			l172.406,171.072c1.408,1.397,3.31,2.18,5.293,2.18H496.97V400.783z"/>
	</g>
</g>
<g>
	<g>
		<path d="M488.454,24.047h-65.53C419.544,10.259,407.081,0,392.266,0c-14.815,0-27.278,10.259-30.658,24.047h-65.53
			c-4.15,0-7.515,3.364-7.515,7.515v248.485c0,4.151,3.365,7.515,7.515,7.515h192.376c4.15,0,7.515-3.364,7.515-7.515V31.562
			C495.969,27.411,492.604,24.047,488.454,24.047z M359.702,39.076h8.517c4.15,0,7.515-3.364,7.515-7.515
			c0-9.116,7.417-16.532,16.532-16.532c9.116,0,16.532,7.417,16.532,16.532c0,4.151,3.365,7.515,7.515,7.515h8.517V56.11h-65.127
			V39.076z M480.939,272.532H303.593V39.076h9.018v208.908c0,4.151,3.365,7.515,7.515,7.515h144.282c4.15,0,7.515-3.364,7.515-7.515
			v-99.945c0-4.151-3.365-7.515-7.515-7.515s-7.515,3.364-7.515,7.515v92.431H327.64V39.076h17.033v24.548
			c0,4.151,3.365,7.515,7.515,7.515h80.157c4.15,0,7.515-3.364,7.515-7.515V39.076h17.033v73.143c0,4.151,3.365,7.515,7.515,7.515
			s7.515-3.364,7.515-7.515V39.076h9.018V272.532z"/>
	</g>
</g>
<g>
	<g>
		<path d="M424.329,208.407h-64.125c-4.15,0-7.515,3.364-7.515,7.515c0,4.151,3.365,7.515,7.515,7.515h64.125
			c4.15,0,7.515-3.364,7.515-7.515C431.843,211.771,428.479,208.407,424.329,208.407z"/>
	</g>
</g>
<g>
	<g>
		<path d="M424.329,176.344h-64.125c-4.15,0-7.515,3.364-7.515,7.515c0,4.151,3.365,7.515,7.515,7.515h64.125
			c4.15,0,7.515-3.364,7.515-7.515C431.843,179.708,428.479,176.344,424.329,176.344z"/>
	</g>
</g>
<g>
	<g>
		<path d="M424.329,144.282h-64.125c-4.15,0-7.515,3.364-7.515,7.515c0,4.151,3.365,7.515,7.515,7.515h64.125
			c4.15,0,7.515-3.364,7.515-7.515C431.843,147.645,428.479,144.282,424.329,144.282z"/>
	</g>
</g>
<g>
	<g>
		<path d="M393.268,24.047h-1.002c-4.15,0-7.515,3.364-7.515,7.515s3.365,7.515,7.515,7.515h1.002c4.15,0,7.515-3.364,7.515-7.515
			S397.418,24.047,393.268,24.047z"/>
	</g>
</g>
<g>
	<g>
		<path d="M424.329,80.157h-64.125c-4.15,0-7.515,3.364-7.515,7.515v40.078c0,4.151,3.365,7.515,7.515,7.515h64.125
			c4.15,0,7.515-3.364,7.515-7.515V87.671C431.843,83.52,428.479,80.157,424.329,80.157z M416.814,120.235h-49.096V95.186h49.096
			V120.235z"/>
	</g>
</g>
<g>
	<g>
		<path d="M270.737,84.311l-15.238-30.476V31.562c0-4.151-3.365-7.515-7.515-7.515c-4.15,0-7.515,3.364-7.515,7.515v22.273
			l-15.238,30.476c-0.518,1.035-0.794,2.202-0.794,3.361V240.47h-9.018v-48.595c0-4.151-3.365-7.515-7.515-7.515
			s-7.515,3.364-7.515,7.515v56.11c0,4.151,3.365,7.515,7.515,7.515h16.532v16.532c0,8.564,6.967,15.53,15.53,15.53H256
			c8.564,0,15.53-6.967,15.53-15.53V87.671C271.53,86.513,271.255,85.346,270.737,84.311z M247.984,72.412l3.873,7.744h-7.744
			L247.984,72.412z M256.501,272.031c0,0.276-0.224,0.501-0.501,0.501h-16.031c-0.277,0-0.501-0.225-0.501-0.501v-48.595h17.033
			V272.031z M256.501,208.407h-17.033V95.186h17.033V208.407z"/>
	</g>
</g>
<g>
</g>
<g>
</g>
<g>
</g>
<g>
</g>
<g>
</g>
<g>
</g>
<g>
</g>
<g>
</g>
<g>
</g>
<g>
</g>
<g>
</g>
<g>
</g>
<g>
</g>
<g>
</g>
<g>
</g>
</svg>
